<?xml version="1.0" encoding="UTF-8" standalone="no"?>
<!DOCTYPE svg PUBLIC "-//W3C//DTD SVG 1.1//EN" "http://www.w3.org/Graphics/SVG/1.1/DTD/svg11.dtd">
<svg width="100%" height="100%" viewBox="0 0 1684 436" version="1.1" xmlns="http://www.w3.org/2000/svg" xmlns:xlink="http://www.w3.org/1999/xlink" xml:space="preserve" xmlns:serif="http://www.serif.com/" style="fill-rule:evenodd;clip-rule:evenodd;stroke-linejoin:round;stroke-miterlimit:2;">
    <g id="Fondo" transform="matrix(1.598633,0,0,1.598633,22,45)">
        <path d="M518.541,13.373C518.885,13.617 518.63,13.992 520.537,14.449C522.693,16.059 526.797,17.763 530.169,20.861C534.341,24.694 539.483,25.796 533.153,32.155C532.136,33.177 532.178,33.093 531.144,34.161C523.726,41.817 523.541,41.515 516.164,49.179C515.527,49.84 513.28,53.048 511.162,55.164C498.401,67.915 497.952,68 496.52,67.464C495.29,67.003 489.652,57.951 477.485,56.613C476.025,56.452 459.91,52.073 452.173,63.308C448.312,68.914 452.418,75.417 455.638,77.256C456.695,77.86 461.71,80.724 469.381,83.768C473.609,85.446 479.556,87.32 480.45,87.601C480.892,87.74 480.542,88.444 485.631,90.188C486.539,90.499 488.687,91.235 496.176,95.91C499.185,97.789 498.598,98.509 501.675,100.23C502.822,100.872 507.077,103.253 512.783,112.331C519.188,122.518 521.724,127.92 520.853,150.515C519.894,175.419 502.553,189.625 499.572,192.577C490.408,201.653 477.694,205.649 472.455,208.399C471.264,209.024 466.394,209.132 462.332,211.127C460.562,211.996 457.68,211.151 450.479,213.43C449.195,213.837 425.16,213.85 423.52,213.431C416.712,211.69 403.373,210.593 393.337,205.852C389.105,203.852 387.426,205.022 371.701,195.172C369.76,193.956 361.686,187.738 360.45,186.549C360.468,186.275 360.071,186.082 360.089,185.808C360.248,183.338 362.256,184.656 381.148,163.151C389.57,153.565 390.138,154.223 399.163,145.148C403.524,140.763 403.222,150.872 426.548,158.326C450.449,165.963 467.801,148.479 449.696,137.177C440.956,131.72 424.541,128.739 411.662,120.201C409.898,119.032 409.719,119.386 408.186,117.904C405.843,115.64 403.58,115.987 399.371,109.642C398.936,109.009 399.028,109.016 398.536,108.426C397.818,107.565 397.577,108.459 397.47,108.463C397.343,108.733 396.713,108.46 396.946,109.576C397.051,110.075 397.216,109.951 397.324,110.444C398.172,114.339 393.647,132.518 389.518,141.509C388.278,144.21 387.219,148.037 387.098,148.195C385.953,149.676 385.929,149.637 385.408,151.452C384.813,153.525 383.744,152.823 382.982,154.786C379.626,163.439 360.515,181.211 357.855,184.983C355.407,187.958 355.357,187.858 352.29,190.173C325.138,210.667 303.97,210.99 296.479,213.431C295.3,213.815 273.188,213.852 271.52,213.432C264.112,211.566 263.992,212.295 256.611,210.164C254.467,209.545 248.432,208.621 242.643,205.202C239.328,203.244 238.839,204.404 235.698,202.165C230.058,198.144 229.447,199.023 226.223,195.789C225.58,195.144 225.231,195.592 217.218,188.824C206.844,180.063 203.979,173.299 200.337,168.601C199.914,168.055 200.743,167.558 195.903,161.193C195.621,160.822 195.997,160.675 194.05,155.672C193.707,154.79 192.782,154.614 192.372,152.529C191.9,150.126 189.782,146.421 189.391,143.52C187.803,131.763 188.122,127.845 186.845,130.769C186.042,132.609 186.202,136.88 186.222,137.413C186.292,139.261 181.728,167.279 178.875,182.558C178.743,183.269 179.022,183.293 177.637,191.523C174.875,207.928 174.919,208.387 173.534,208.639C173.234,208.693 113.488,208.655 113.456,208.653C111.859,208.552 109.935,198.63 102.872,182.317C102.237,180.849 97.388,165.962 89.861,147.353C89.814,147.236 87.383,138.886 82.875,128.317C79.847,121.219 77.589,112.978 77.217,111.617C76.529,110.18 76.808,109.131 75.678,109.889C74.812,110.47 75.208,111.135 75.179,111.213C74.378,114.012 74.543,122.664 72.998,128.613C70.196,139.406 71.718,139.565 71.431,140.479C69.148,147.752 69.922,151.764 69.419,153.476C67.846,158.837 66.46,174.393 66.433,174.48C64.609,180.391 61.967,204.901 61.68,207.559C61.472,209.487 60.239,208.49 3.489,208.691C-0.241,208.704 1.896,206.335 2.09,204.455C2.196,203.419 3.359,192.127 3.564,191.52C6.01,184.266 5.039,181.156 5.58,179.526C7.933,172.431 8.422,160.877 8.555,160.518C11.424,152.747 9.656,152.402 10.576,149.524C12.424,143.747 13.918,127.796 16.329,116.469C17.867,109.242 18.484,100.76 18.564,100.52C20.807,93.804 20.053,91.208 20.564,89.519C22.698,82.462 23.512,69.632 23.554,69.518C25.957,62.955 24.997,60.346 25.576,58.523C27.769,51.609 28.467,39.783 28.559,39.519C30.939,32.689 29.99,30.399 30.569,28.521C32.815,21.241 33.365,8.94 33.642,8.63C35.025,7.08 87.812,8.042 92.521,8.128C95.726,8.186 97.017,14.129 98.78,19.397C102.577,30.747 103.176,30.52 103.423,31.53C103.939,33.642 111.049,54.817 113.418,58.538C113.922,59.328 112.739,59.745 117.142,69.646C117.275,69.946 118.509,72.72 118.614,73.477C119.255,78.083 120.508,77.669 130.714,108.388C130.854,109.653 130.696,109.621 131.158,110.765C133.05,115.443 133.203,108.657 133.208,108.407C134.342,101.948 134.066,101.968 135.11,95.443C135.26,94.507 135.337,89.199 135.564,88.52C137.913,81.499 137.068,77.173 137.58,75.525C139.936,67.932 139.025,64.39 139.585,62.526C141.2,57.151 139.763,56.931 140.563,54.52C142.439,48.87 147.094,9.333 147.676,8.659C148.455,7.755 206.808,7.816 207.337,8.62C207.907,9.488 199.843,55.453 199.837,55.521C199.516,59.63 198.248,60.919 197.753,63.515C197.19,66.465 199.228,65.745 199.637,64.608C204.738,50.414 211.609,45.93 215.553,39.536C216.999,39.055 217.029,39.028 217.538,37.551C220.113,35.732 243.573,9.135 280.448,3.197C281.645,3.005 291.323,1.446 295.499,1.398C313.826,1.188 328.098,2.635 348.336,12.859C351.514,14.464 351.636,15.096 351.699,15.129C359.023,18.995 362.864,22.716 364.287,23.82C378.917,35.157 387.807,52.796 388.419,55.578C388.463,55.779 389.699,61.399 390.274,57.358C390.362,56.737 391.186,50.953 391.872,49.682C395.875,42.272 400.76,22.901 433.289,9.069C446.463,3.467 455.812,3.637 460.524,2.587C466.725,1.205 489.169,3.34 497.471,5.581C501.177,6.581 500.934,7.067 504.647,8.092C511.094,9.873 510.965,10.246 511.533,10.364C513.661,10.809 513.896,11.8 514.668,12.071C518.285,13.343 518.24,13.245 518.541,13.373L240.705,121.555C240.473,123.253 240.61,123.273 239.551,124.535C238.904,125.426 238.983,125.462 236.143,131.341C234.187,135.391 234.018,135.297 233.883,135.663C227.882,151.899 215.41,168.619 222.536,169.199C223.367,169.267 250.149,169.23 250.479,169.209C253.942,168.99 253.473,168.012 254.924,164.81C263.296,146.326 262.903,146.161 263.811,144.651C265.766,141.402 267.368,135.378 267.59,134.544C267.762,133.898 268.993,132.701 269.12,132.352C273.521,120.285 275.397,119.204 277.6,111.548C277.798,110.86 278.937,109.725 279.075,109.331C282.929,98.375 285.692,94.16 286.026,93.32C288.623,86.792 288.825,86.886 289.028,86.311C289.251,85.681 291.952,78.04 296.12,81.9C298.336,83.953 318.561,165.181 319.589,166.44C321.646,168.961 323.061,168.384 339.5,168.384C350.685,168.384 357.625,169.891 353.226,159.606C352.833,158.686 348.54,144.295 341.571,122.474C328.992,83.087 329.65,82.906 328.233,79.605C326.29,75.076 327.038,74.912 325.839,71.376C313.386,34.639 315.001,33.753 312.431,31.591C310.612,30.06 285.371,30.793 284.361,31.19C281.114,32.466 273.115,53.713 270.734,57.614C269.204,60.12 263.432,73.711 263.084,74.188C261.693,76.092 262.281,76.324 261.127,78.312C257.615,84.362 258.45,84.708 258.089,85.189C256.197,87.711 250.152,101.886 249.721,102.605C247.826,105.766 248.272,105.934 248.085,106.187C244.996,110.357 246.046,112.009 245.104,113.198C243.66,115.021 244.449,115.393 243.094,117.191C241.577,119.202 241.618,119.159 240.705,121.555L518.541,13.373Z" style="fill:rgb(235,68,153);fill-opacity:1;"/>
        <path d="M606.643,171.438C606.949,171.678 607.256,171.918 607.563,172.158C607.878,171.98 607.838,173.247 608.153,173.069C608.638,172.796 607.943,172.486 610.836,166.654C615.137,157.988 614.708,157.814 619.802,149.653C621.25,147.333 620.634,147.052 622.815,143.663C623.92,141.945 623.456,141.748 624.832,139.691C625.43,138.796 625.275,138.719 630.86,127.662C632.291,124.828 632.666,125.062 635.842,118.656C639.188,111.909 638.486,110.166 643.498,110.098C645.99,110.065 672.957,109.701 674.651,110.216C676.12,110.662 674.884,112.555 674.812,113.544C674.436,118.726 673.88,118.615 663.635,177.523C661.064,192.308 661.264,192.349 660.85,193.586C659.016,199.065 660.46,208.684 655.507,208.735C636.991,208.926 636.812,209.423 635.62,208.369C633.422,206.423 640.398,182.881 641.395,169.487C641.461,168.595 642.572,168.848 643.392,158.485C643.45,157.751 644.53,158.001 645.346,149.49C645.519,147.686 650.149,136.068 646.694,138.745C645.659,139.548 644.872,144.698 641.199,150.324C639.341,153.17 640.038,153.48 638.171,156.331C636.206,159.329 630.755,170.123 630.141,171.338C629.309,172.986 623.356,183.57 622.759,184.63C619.446,190.519 619.79,190.616 616.2,196.347C615.949,196.748 616.307,196.923 613.171,202.305C609.82,208.059 609.998,208.234 609.459,208.424C607.732,209.035 593.469,208.671 593.447,208.659C591.319,207.504 588.617,184.009 587.146,179.593C586.487,177.615 583.092,155.494 582.138,152.596C580.057,146.276 581.55,134.913 578.842,138.716C578.17,139.658 579.428,144.773 576.426,158.477C574.4,167.723 575.675,169.061 573.665,175.534C571.349,182.992 570.077,207.925 566.539,208.672C566.048,208.776 546.583,208.757 546.408,208.72C545.425,208.515 545.853,208.051 546.39,201.486C546.463,200.594 547.516,200.811 548.401,190.486C548.525,189.035 550.304,186.191 551.39,173.486C551.466,172.595 552.458,172.779 553.393,162.486C553.518,161.11 554.941,161.376 556.389,145.486C556.47,144.595 557.425,144.829 558.383,134.485C558.466,133.594 559.379,133.776 560.381,123.482C560.724,119.954 561.125,120.06 561.387,116.486C561.852,110.148 564.878,110.11 565.485,110.102C567.813,110.072 592.056,109.764 594.586,110.177C598.024,110.738 599.526,135.258 602.428,144.522C603.669,148.486 602.375,148.727 604.437,154.521C605.281,156.894 604.022,157.096 605.419,161.526C605.526,161.863 606.071,168.195 606.643,171.438Z" style="fill:rgb(235,68,153);fill-opacity:0.99;"/>
        <path d="M716.72,64.394C717.619,68.05 717.459,68.109 717.69,68.339C719.691,70.334 719.298,64.765 719.274,64.428C721.137,55.396 720.335,55.286 720.58,54.525C722.668,48.042 723.447,36.864 723.565,36.521C725.87,29.751 725.101,27.018 725.578,25.524C728.722,15.671 727.819,6.481 729.67,4.673C730.862,3.507 731.084,4.058 750.515,4.21C750.962,4.214 754.087,4.238 752.413,9.472C751.038,13.774 752.365,13.968 751.44,16.48C749.236,22.467 750.6,22.751 749.423,26.476C747.228,33.427 748.612,33.691 747.418,37.474C746.032,41.87 747.291,42.067 746.437,44.479C743.807,51.912 740.624,78.805 738.904,84.617C737.47,89.462 737.822,92.224 737.435,93.48C735.579,99.504 737.596,103.686 733.507,103.697C711.321,103.759 711.341,104.058 709.511,103.479C709.122,103.356 709.213,103.198 701.435,84.541C699.206,79.194 699.276,79.176 699.083,78.712C693.979,66.504 693.589,66.659 693.379,65.529C693.236,64.754 692.497,60.769 689.82,56.347C687.33,52.235 686.814,47.923 684.846,44.331C683.731,42.297 683.458,39.283 683.217,38.783C681.317,34.852 681.492,46.31 681.436,46.48C678.911,54.056 680.075,55.44 679.43,57.479C677.233,64.424 677.921,66.855 677.43,68.479C675.697,74.205 677.218,74.458 676.452,76.484C673.882,83.275 675.732,83.664 674.427,87.476C673.695,89.615 673.342,89.535 671.673,102.561C671.514,103.802 670.897,103.712 650.494,103.696C646.159,103.693 648.735,96.617 649.283,94.45C650.371,90.143 651.56,79.544 651.567,79.521C654.024,72.088 652.992,70.315 653.572,68.522C655.87,61.418 655.111,59.02 655.584,57.527C656.805,53.677 655.454,53.476 656.551,50.517C659.246,43.247 661.027,23.925 665.108,6.425C665.762,3.618 666.882,4.209 684.5,4.217C690.497,4.219 691.775,3.317 694.082,8.809C700.46,23.993 700.136,24.098 700.765,25.382C702.276,28.465 701.894,28.53 703.195,31.642C704.513,34.795 704.763,34.627 706.08,37.8C710.952,49.54 711.134,49.465 711.42,50.532C713.389,57.873 715.219,57.535 716.72,64.394Z" style="fill:rgb(235,68,153);fill-opacity:0.99;"/>
        <path d="M622.15,94.146C617.857,98.443 614.459,99.646 613.686,99.919C613.347,100.039 613.582,100.455 609.656,101.893C608.949,102.152 608.378,103.417 606.521,103.615C605.395,103.736 605.46,104.032 592.508,105.578C591.312,105.721 588.691,106.034 577.479,104.638C572.768,104.052 570.211,102.524 569.647,102.187C567.307,100.789 566.906,101.765 564.698,100.166C556.577,94.286 556.559,94.146 551.869,85.326C549.981,81.776 549.741,66.454 552.287,58.453C552.723,57.081 557.924,24.895 559.357,18.474C561.362,9.488 560.505,4.259 563.472,4.214C584.568,3.897 585.546,3.707 585.637,5.481C585.662,5.97 585.12,5.818 584.606,11.513C584.423,13.544 584.134,13.482 579.802,36.55C579.146,40.041 579.744,40.105 578.695,43.542C578.586,43.898 574.678,64.435 574.647,67.503C574.4,91.467 598.237,84.259 601.697,81.826C601.744,81.794 605.957,80.065 609.165,73.34C611.471,68.506 616.829,34.34 617.566,31.521C618.91,26.375 618.277,26.316 619.574,20.523C621.626,11.359 620.552,4.272 624.482,4.216C644.643,3.927 645.407,3.757 645.762,5.425C646.067,6.863 635.403,64.262 634.622,70.518C634.268,73.352 629.606,84.853 628.455,86.475C627.995,87.123 626.329,89.472 622.15,94.146Z" style="fill:rgb(235,68,153);fill-opacity:0.99;"/>
        <path d="M684.86,198.163C684.47,197.489 680.547,190.702 680.367,189.526C679.334,182.765 678.855,179.354 679.392,175.486C680.547,167.173 680.363,167.215 680.58,166.525C682.553,160.245 682.209,156.247 684.32,146.468C688.057,129.157 687.114,128.99 687.57,127.522C688.901,123.232 688.056,122.066 688.569,120.522C691.144,112.763 688.842,110.105 693.495,110.098C713.846,110.065 713.94,110.086 714.36,110.618C714.629,110.96 706.76,152.593 706.675,154.514C706.216,164.931 696.287,184.893 714.474,189.578C728.214,193.117 734.437,184.098 736.26,182.281C739.458,179.093 743.171,156.549 743.181,156.446C744.354,145.301 745.173,145.448 745.245,144.48C745.588,139.817 746.368,140.032 747.099,135.452C748.845,124.507 748.244,124.428 748.563,123.52C750.273,118.65 749.992,118.632 750.398,113.486C750.748,109.043 755.348,110.098 767.5,110.098C772.979,110.098 776.039,109.239 774.429,114.478C772.406,121.065 771.561,132.086 771.432,132.479C769.046,139.77 770.208,140.004 768.198,147.408C767.637,149.475 768.484,149.601 763.68,174.537C762.47,180.816 762.055,180.627 759.869,186.641C759.08,188.812 758.894,188.625 757.832,190.673C752.129,201.674 745.57,203.329 742.595,205.632C735.986,210.749 717.292,211.773 715.523,211.408C709.883,210.246 700.815,209.889 696.687,207.166C690.835,203.306 690.43,203.882 684.86,198.163Z" style="fill:rgb(235,68,153);fill-opacity:0.99;"/>
        <path d="M761.992,77.566C762.38,73.2 762.455,72.911 762.558,72.517C764.222,66.125 763.392,66.059 763.567,65.521C766.014,58.007 764.982,56.363 765.572,54.522C767.807,47.541 767.089,45.095 767.585,43.527C768.848,39.524 767.838,39.345 769.134,35.408C769.543,34.168 774.07,6.927 774.38,5.46C774.69,3.987 775.431,4.217 811.5,4.217C837.16,4.217 839.484,3.687 838.479,6.494C836.197,12.867 836.794,18.184 834.756,23.623C833.634,26.618 794.949,23.009 793.91,25.7C793.096,27.807 791.528,39.88 791.413,41.495C791.206,44.381 793.29,42.388 827.54,43.077C830.829,43.143 829.29,45.081 826.636,60.534C826.258,62.74 822.227,61.899 790.495,62.026C785.25,62.047 787.025,67.608 786.433,69.479C786.128,70.445 783.363,79.184 784.849,82.039C785.146,82.61 785.392,82.278 822.5,82.306C827.458,82.309 830.23,81.837 828.452,86.484C825.461,94.299 827.537,94.804 824.718,102.627C824.232,103.976 823.572,103.684 803.5,103.684C759.482,103.684 756.823,105.162 757.31,101.495C757.933,96.81 758.905,93.12 759.094,92.403C760.265,87.961 759.441,87.844 761.992,77.566Z" style="fill:rgb(235,68,153);fill-opacity:0.99;"/>
        <path d="M846.5,130.014C810.999,130.014 810.048,129.733 809.803,131.557C807.793,146.513 805.335,148.957 809.49,148.973C844.232,149.107 844.452,148.915 844.628,149.345C845.47,151.406 843.467,166.697 841.517,167.529C839.138,168.544 804.812,167.04 803.398,168.402C802.354,169.409 802.454,177.746 800.699,183.545C800.591,183.903 799.322,188.093 801.535,188.155C842.21,189.295 845.01,186.105 844.467,189.498C843.417,196.057 842.968,197.828 842.788,198.541C840.988,205.644 842.793,208.715 839.523,208.748C834.253,208.8 774.62,209.398 773.649,208.358C771.644,206.213 774.434,205.875 775.392,194.486C775.446,193.844 777.76,187.655 778.37,176.483C778.414,175.669 779.563,175.932 780.389,166.486C780.467,165.595 781.433,165.775 782.396,155.485C782.691,152.329 783.491,152.52 789.381,116.481C790.346,110.573 790.894,110.404 791.394,110.249C792.323,109.962 819.621,110.14 848.5,110.098C848.967,110.097 853.997,110.09 854.31,110.638C854.585,111.117 853.995,111.074 853.628,117.517C853.582,118.331 852.473,118.101 851.612,127.516C851.306,130.867 849.866,129.623 846.5,130.014Z" style="fill:rgb(235,68,153);fill-opacity:0.99;"/>
        <path d="M1014.5,130.014C979.663,130.014 979.338,129.872 978.811,130.758C977.896,132.297 974.488,147.879 976.369,148.712C978.392,149.607 1012.181,148.108 1013.38,149.6C1014.51,151.006 1012.112,157.184 1011.863,159.528C1011.596,162.048 1011.699,167.786 1008.527,167.853C995.264,168.133 972.47,167.067 971.873,168.706C969.798,174.394 971.487,174.73 969.657,180.532C969.472,181.118 967.265,188.117 970.524,188.164C982.398,188.335 1011.601,187.702 1012.377,188.611C1012.519,188.777 1010.732,207.431 1008.554,208.659C1008.261,208.824 958.941,208.7 947.5,208.737C947.099,208.738 942.773,208.751 942.496,208.507C940.499,206.743 944.536,197.448 945.386,184.486C945.557,181.887 946.396,182.068 951.368,152.479C951.745,150.235 951.987,150.307 956.353,124.477C958.696,110.619 959.261,110.475 960.413,110.183C960.824,110.079 1020.803,109.97 1021.639,110.238C1023.249,110.755 1019.981,128.095 1019.113,129.169C1018.533,129.887 1018.425,129.596 1014.5,130.014Z" style="fill:rgb(235,68,153);fill-opacity:0.99;"/>
        <path d="M889.88,179.256C892.071,179.308 891.425,178.348 892.364,176.428C896.199,168.592 896.38,168.339 896.836,167.7C899.429,164.069 898.814,163.769 900.3,161.398C906.182,152.006 905.334,151.579 905.91,150.813C908.23,147.729 918.851,127.685 920.865,123.687C921.022,123.374 922.277,120.881 922.908,119.817C925.669,115.158 925.423,115.028 925.71,114.655C928.181,111.446 927.659,111.138 927.898,110.883C929.298,109.383 929.604,109.958 953.537,110.075C958.735,110.101 953.85,113.35 949.164,122.342C949.103,122.458 915.733,178.393 913.759,181.643C903.658,198.268 903.857,198.366 902.901,199.76C900.959,202.59 898.82,208.327 896.532,208.679C895.979,208.765 873.657,208.784 873.444,208.672C871.944,207.879 872.587,207.46 872.12,204.549C871.058,197.926 870.416,198.093 870.382,197.515C870.315,196.394 869.952,190.291 869.066,183.546C868.183,176.828 867.432,177.091 867.387,176.514C866.788,168.902 865.657,169.092 865.311,161.513C865.14,157.784 864.511,157.971 864.391,156.515C863.39,144.399 862.462,144.564 862.378,143.515C861.548,133.145 860.421,133.409 860.375,132.516C859.31,112.113 856.638,112.077 857.665,110.643C858.682,109.222 859.049,109.909 879.501,110.098C885.679,110.155 883.003,113.33 883.89,120.452C884.64,126.471 884.298,126.412 884.95,132.46C885.762,139.995 886.548,139.836 886.588,140.49C886.962,146.527 886.731,146.482 887.623,152.484C888.662,159.485 888.034,159.489 888.895,166.452C889.686,172.852 889.139,172.843 889.88,179.256Z" style="fill:rgb(235,68,153);fill-opacity:0.99;"/>
        <path d="M926.145,56.155C917.489,64.968 921.229,71.966 917.677,83.539C916.065,88.792 915.416,103.098 912.525,103.632C907.922,104.484 893.124,103.795 891.439,103.717C888.459,103.578 891.241,101.856 892.378,89.484C892.46,88.594 893.384,88.764 894.374,78.482C894.716,74.935 895.114,75.068 895.39,71.486C895.648,68.126 899.562,63.175 895.913,58.194C894.649,56.469 896.16,55.785 892.921,51.189C892.121,50.053 892.657,49.808 885.867,35.319C884.352,32.087 883.505,28.102 880.569,23.463C879.958,22.497 879.275,19.894 879.192,19.575C878.876,18.373 876.04,14.299 874.259,8.574C873.435,5.925 870.999,4.144 874.457,4.16C898.123,4.273 899.084,4.014 899.768,6.417C899.906,6.902 900.142,6.781 901.947,12.338C902.316,13.474 903.203,13.191 903.613,15.475C903.778,16.396 904.306,19.338 907.487,26.506C909.514,31.073 908.768,31.313 911.127,35.682C911.931,37.171 911.307,37.324 912.113,38.768C913.867,41.913 914.26,38.595 918.065,34.137C919.131,32.888 919.585,31.432 923.709,26.684C924.267,26.042 923.849,25.735 930.105,18.192C930.948,17.176 930.485,16.849 939.885,4.896C940.945,3.548 962.664,4.553 967.587,4.122C971.748,3.758 966.183,8.543 955.895,20.827C953.522,23.66 930.324,51.361 926.145,56.155Z" style="fill:rgb(235,68,153);fill-opacity:0.99;"/>
        <path d="M75.179,111.213C75.208,111.135 74.812,110.47 75.678,109.889C76.808,109.131 76.529,110.18 77.217,111.617C75.852,109.867 75.565,111.03 75.179,111.213Z" style="fill:rgb(176,51,115);fill-opacity:0.3;"/>
        <path d="M397.47,108.463C397.577,108.459 397.818,107.565 398.536,108.426C399.028,109.016 398.936,109.009 399.371,109.642C398.738,109.249 398.104,108.856 397.47,108.463Z" style="fill:rgb(235,68,153);fill-opacity:0.33;"/>
        <path d="M217.538,37.551C217.029,39.028 216.999,39.055 215.553,39.536C216.467,38.452 216.427,38.488 217.538,37.551Z" style="fill:rgb(179,51,116);fill-opacity:0.18;"/>
        <path d="M240.705,121.555C240.473,123.253 240.61,123.273 239.551,124.535C239.764,123.505 239.82,123.603 240.705,121.555Z" style="fill:rgb(175,50,114);fill-opacity:0.19;"/>
        <path d="M518.541,13.373C519.681,13.719 519.631,13.706 520.537,14.449C518.63,13.992 518.885,13.617 518.541,13.373Z" style="fill:rgb(181,52,118);fill-opacity:0.2;"/>
    </g>
</svg>
